<svg width="35" height="35" viewBox="0 0 35 35" fill="none" xmlns="http://www.w3.org/2000/svg">
<g clip-path="url(#clip0_22004_890)">
<path d="M16.7971 17.3382C16.6724 17.3817 16.5504 17.4324 16.4316 17.4903C15.5648 17.9487 14.8959 18.7088 14.5514 19.627C13.9856 20.9467 11.3629 25.3762 1.36155 26.8921C1.03802 26.9371 0.748578 27.1167 0.564581 27.3866C0.383858 27.6532 0.32464 27.9839 0.401631 28.2967C0.624435 29.1044 1.02273 29.8529 1.56811 30.489C1.60444 30.5539 1.65295 30.6112 1.71097 30.6577C2.75321 31.7732 4.04343 32.6276 5.4772 33.1519C5.4927 33.1582 5.50704 33.1657 5.52311 33.1708C6.20206 33.4383 6.89805 33.6602 7.60647 33.8353C8.85908 34.1449 10.1367 34.3427 11.4243 34.4262C11.4473 34.4309 11.4704 34.4342 11.4938 34.436C11.5001 34.436 11.5064 34.432 11.5121 34.432C11.8506 34.4515 12.1943 34.4653 12.5449 34.4653C14.7671 34.4653 17.2183 34.0171 19.1863 32.5506C20.1335 33.1967 21.3447 33.3154 22.3994 32.8656C23.2804 33.8503 24.525 34.433 25.8455 34.4789C27.166 34.5249 28.4481 34.03 29.3954 33.1089C30.6783 33.7141 32.1935 33.5392 33.3047 32.6575C34.4159 31.7759 34.9308 30.3401 34.6331 28.9532C34.3355 27.5663 33.2768 26.4683 31.9016 26.1203C31.48 24.6539 30.3256 23.5126 28.8545 23.1078C27.3833 22.703 25.8075 23.0931 24.6951 24.1374C24.054 23.781 23.3104 23.6547 22.5876 23.7794C22.541 22.8636 22.44 21.9514 22.2852 21.0476C22.1019 19.9522 21.5467 18.9534 20.7131 18.2195L23.773 2.39034C23.8777 1.87171 23.7702 1.33278 23.4747 0.893946C23.0245 0.215195 22.2084 -0.123726 21.4098 0.0364177C20.6112 0.196561 19.9889 0.823935 19.8352 1.62378L16.7971 17.3382ZM24.4334 25.3331C24.6769 25.5185 25.0231 25.4801 25.2201 25.2459C26.0229 24.2939 27.3014 23.888 28.5064 24.2024C29.7114 24.5169 30.6284 25.4958 30.8637 26.7188C30.9103 26.9594 31.1046 27.1438 31.3474 27.1778C32.3931 27.325 33.2437 28.0941 33.4952 29.1198C33.7466 30.1454 33.3482 31.2208 32.4891 31.8349C31.6301 32.4491 30.4836 32.4783 29.5945 31.9085C29.353 31.7541 29.0345 31.8016 28.8486 32.0198C28.114 32.8899 27.02 33.3737 25.882 33.3317C24.7441 33.2897 23.6887 32.7266 23.0202 31.8047C22.8438 31.5617 22.5097 31.4958 22.2543 31.6538C21.5175 32.1094 20.5834 32.0964 19.8596 31.6204C19.1359 31.1445 18.7538 30.292 18.8801 29.4351C19.0064 28.5781 19.6183 27.8722 20.4486 27.6253C20.6892 27.5533 20.8549 27.3331 20.8577 27.082C20.8764 25.8636 21.8666 24.8842 23.0851 24.8787C23.5724 24.8771 24.0465 25.0369 24.4334 25.3331ZM19.7377 26.6677C18.5109 27.2093 17.7168 28.4211 17.71 29.7621C17.7107 30.475 17.9387 31.1692 18.3606 31.7439C16.9617 32.672 15.3373 33.2038 13.6603 33.2827C14.6339 32.6396 15.5116 31.8621 16.2675 30.9733C16.4707 30.7298 16.4379 30.3677 16.1944 30.1646C15.9509 29.9614 15.5888 29.9942 15.3856 30.2377C14.2712 31.5161 12.9053 32.5513 11.3733 33.2787C10.1967 33.1921 9.02961 33.0053 7.88474 32.7204C7.78204 32.6946 7.69024 32.663 7.5904 32.6389C10.6566 31.5901 14.1687 29.7839 16.2543 26.7142C16.4266 26.4523 16.3568 26.1005 16.0975 25.9243C15.8382 25.7481 15.4854 25.8127 15.3053 26.0693C13.0504 29.3903 8.89343 31.1316 5.72966 32.0164C4.85297 31.6693 4.03286 31.1936 3.2963 30.6049C5.53574 30.284 7.71096 29.6137 9.74261 28.6185C9.92531 28.5219 10.0419 28.3344 10.0478 28.1279C10.0538 27.9213 9.94815 27.7274 9.77131 27.6204C9.59447 27.5135 9.37376 27.5098 9.19352 27.611C7.09638 28.7551 4.10647 29.3369 2.31745 29.6003C1.94894 29.1358 1.67947 28.6007 1.52565 28.0281C10.3439 26.6907 13.8043 23.0845 15.0758 21.07C15.2928 21.279 15.5296 21.4666 15.7827 21.63C16.6246 22.1565 17.6014 22.427 18.5942 22.4086C18.659 22.4086 18.7233 22.4086 18.7887 22.4052C19.6293 22.391 20.4639 22.2601 21.2685 22.0162C21.3678 22.7299 21.4281 23.4486 21.4493 24.1689C20.5172 24.686 19.883 25.6118 19.7377 26.6677ZM21.0643 20.8675C20.318 21.1153 19.5382 21.2471 18.752 21.2582C17.9292 21.3064 17.1115 21.1003 16.4098 20.6678C16.1224 20.4867 15.8653 20.2615 15.6479 20.0005C15.8909 19.3703 16.3485 18.8461 16.94 18.5202C17.5935 18.2183 18.3447 18.2089 19.0056 18.4944C20.0282 18.9157 20.7915 19.7956 21.0643 20.8675ZM20.9621 1.84124C21.0525 1.37842 21.4984 1.07448 21.9622 1.1596C22.1903 1.20402 22.3913 1.33765 22.5205 1.53083C22.6464 1.718 22.692 1.94779 22.6473 2.16886L19.6723 17.5459C19.5856 17.5052 19.5002 17.4587 19.4124 17.4243C18.962 17.2514 18.4849 17.1582 18.0026 17.1489L20.9621 1.84124Z" fill="black"/>
<path d="M26.9741 26.7268C27.2067 26.4507 27.5772 26.3328 27.9266 26.4238C28.2759 26.5149 28.5418 26.7986 28.61 27.1531C28.6619 27.4233 28.8983 27.6185 29.1734 27.6185C29.21 27.6184 29.2465 27.6149 29.2824 27.6081C29.4319 27.5794 29.5637 27.4924 29.6491 27.3664C29.7344 27.2404 29.7662 27.0857 29.7374 26.9363C29.5853 26.1475 28.9936 25.5162 28.2162 25.3135C27.4389 25.1107 26.6142 25.3726 26.0963 25.9867C25.8919 26.2291 25.9227 26.5913 26.1651 26.7957C26.4075 27.0001 26.7697 26.9692 26.9741 26.7268Z" fill="black"/>
<path d="M30.1229 19.7951C30.1229 20.9042 31.022 21.8033 32.1311 21.8033C33.2402 21.8033 34.1393 20.9042 34.1393 19.7951C34.1393 18.686 33.2402 17.7869 32.1311 17.7869C31.022 17.7869 30.1229 18.686 30.1229 19.7951ZM32.9918 19.7951C32.9918 20.2704 32.6064 20.6557 32.1311 20.6557C31.6558 20.6557 31.2705 20.2704 31.2705 19.7951C31.2705 19.3197 31.6558 18.9344 32.1311 18.9344C32.6064 18.9344 32.9918 19.3197 32.9918 19.7951Z" fill="black"/>
<path d="M28.4016 17.7869C29.3523 17.7869 30.1229 17.0163 30.1229 16.0656C30.1229 15.115 29.3523 14.3443 28.4016 14.3443C27.451 14.3443 26.6803 15.115 26.6803 16.0656C26.6803 17.0163 27.451 17.7869 28.4016 17.7869ZM28.4016 15.4918C28.7185 15.4918 28.9754 15.7487 28.9754 16.0656C28.9754 16.3825 28.7185 16.6394 28.4016 16.6394C28.0847 16.6394 27.8278 16.3825 27.8278 16.0656C27.8278 15.7487 28.0847 15.4918 28.4016 15.4918Z" fill="black"/>
<path d="M4.30326 13.1968C4.62015 13.1968 4.87703 12.9399 4.87703 12.623V11.4754C4.87703 11.1586 4.62015 10.9017 4.30326 10.9017C3.98638 10.9017 3.72949 11.1586 3.72949 11.4754V12.623C3.72949 12.9399 3.98638 13.1968 4.30326 13.1968Z" fill="black"/>
<path d="M4.87703 16.0656V14.9181C4.87703 14.6012 4.62015 14.3443 4.30326 14.3443C3.98638 14.3443 3.72949 14.6012 3.72949 14.9181V16.0656C3.72949 16.3825 3.98638 16.6394 4.30326 16.6394C4.62015 16.6394 4.87703 16.3825 4.87703 16.0656Z" fill="black"/>
<path d="M2.00822 14.3443H3.15576C3.47264 14.3443 3.72953 14.0874 3.72953 13.7705C3.72953 13.4536 3.47264 13.1967 3.15576 13.1967H2.00822C1.69133 13.1967 1.43445 13.4536 1.43445 13.7705C1.43445 14.0874 1.69133 14.3443 2.00822 14.3443Z" fill="black"/>
<path d="M5.45085 14.3443H6.59839C6.91527 14.3443 7.17216 14.0874 7.17216 13.7705C7.17216 13.4536 6.91527 13.1967 6.59839 13.1967H5.45085C5.13396 13.1967 4.87708 13.4536 4.87708 13.7705C4.87708 14.0874 5.13396 14.3443 5.45085 14.3443Z" fill="black"/>
<path d="M6.47956 20.537L5.61891 21.3976C5.46975 21.5417 5.40993 21.755 5.46244 21.9556C5.51495 22.1562 5.67161 22.3129 5.87222 22.3654C6.07283 22.4179 6.28616 22.3581 6.43022 22.2089L7.29087 21.3483C7.50832 21.1232 7.50521 20.7653 7.28388 20.544C7.06256 20.3226 6.7047 20.3195 6.47956 20.537Z" fill="black"/>
<path d="M9.8729 17.955C9.64885 17.731 9.28565 17.731 9.06159 17.955L8.20094 18.8156C8.05178 18.9597 7.99196 19.173 8.04447 19.3736C8.09698 19.5742 8.25364 19.7309 8.45425 19.7834C8.65486 19.8359 8.86819 19.7761 9.01225 19.6269L9.8729 18.7663C10.0969 18.5422 10.0969 18.179 9.8729 17.955Z" fill="black"/>
<path d="M9.01217 20.537C8.78704 20.3195 8.42917 20.3226 8.20785 20.544C7.98653 20.7653 7.98342 21.1232 8.20086 21.3483L9.06151 22.2089C9.28665 22.4264 9.64451 22.4233 9.86584 22.202C10.0872 21.9806 10.0903 21.6228 9.87283 21.3976L9.01217 20.537Z" fill="black"/>
<path d="M7.29092 18.8157L6.43026 17.955C6.20513 17.7376 5.84726 17.7407 5.62594 17.962C5.40462 18.1833 5.40151 18.5412 5.61895 18.7663L6.47961 19.627C6.70474 19.8444 7.06261 19.8413 7.28393 19.62C7.50525 19.3987 7.50836 19.0408 7.29092 18.8157Z" fill="black"/>
<path d="M7.07232 5.77904L16.8264 7.50036C16.8595 7.50633 16.8932 7.50921 16.9268 7.50896C17.2233 7.50745 17.4697 7.28037 17.4955 6.98504C17.5213 6.68972 17.3178 6.4234 17.0261 6.3706L7.27199 4.64929C6.96366 4.60176 6.67386 4.8093 6.61956 5.1165C6.56527 5.42371 6.76638 5.718 7.07232 5.77904Z" fill="black"/>
<path d="M16.2526 10.3692C16.2857 10.3752 16.3193 10.378 16.353 10.3778C16.6494 10.3763 16.8959 10.1492 16.9217 9.85387C16.9474 9.55854 16.744 9.29222 16.4523 9.23943L10.2332 8.14123C9.92104 8.08609 9.62331 8.29443 9.56817 8.60656C9.51303 8.91869 9.72137 9.21642 10.0335 9.27156L16.2526 10.3692Z" fill="black"/>
<path d="M7.6942 11.196C7.66768 11.3459 7.70182 11.5002 7.78909 11.6249C7.87636 11.7496 8.00962 11.8346 8.15953 11.861L15.6788 13.1881C15.7118 13.1938 15.7452 13.1967 15.7786 13.1967C16.0763 13.1969 16.3246 12.9693 16.3505 12.6728C16.3763 12.3762 16.1711 12.1092 15.8779 12.0578L8.35863 10.7295C8.20865 10.7032 8.05436 10.7376 7.92974 10.8251C7.80511 10.9126 7.72038 11.046 7.6942 11.196Z" fill="black"/>
</g>
<defs>
<clipPath id="clip0_22004_890">
<rect width="35" height="35" fill="white"/>
</clipPath>
</defs>
</svg>
