<svg width="35" height="35" viewBox="0 0 35 35" fill="none" xmlns="http://www.w3.org/2000/svg">
<path d="M19.0061 10.2463C19.0309 10.1034 19.1115 9.97628 19.23 9.89281C19.3486 9.80933 19.4954 9.77635 19.6383 9.80111C22.3281 10.2753 24.7898 11.6137 26.6503 13.6134C26.7009 13.6656 26.7406 13.7274 26.7671 13.7952C26.7935 13.863 26.8062 13.9354 26.8043 14.0081C26.8024 14.0808 26.786 14.1525 26.7561 14.2188C26.7262 14.2851 26.6834 14.3448 26.6301 14.3943C26.5768 14.4439 26.5142 14.4823 26.4459 14.5074C26.3776 14.5324 26.305 14.5436 26.2323 14.5402C26.1596 14.5369 26.0883 14.519 26.0226 14.4878C25.9569 14.4565 25.8981 14.4125 25.8497 14.3582C24.152 12.5334 21.9057 11.3118 19.4512 10.8785C19.3084 10.8536 19.1813 10.7731 19.0978 10.6545C19.0143 10.536 18.9813 10.3891 19.0061 10.2463ZM32.5741 28.4889V29.0839C32.5735 29.6705 32.3403 30.2329 31.9255 30.6477C31.5108 31.0625 30.9485 31.2959 30.362 31.2966H4.63804C4.05148 31.2959 3.48916 31.0625 3.07445 30.6477C2.65974 30.2329 2.42651 29.6705 2.42593 29.0839V28.4889C2.42651 27.9024 2.65974 27.34 3.07445 26.9252C3.48916 26.5104 4.05148 26.277 4.63804 26.2763H12.2396V22.6587H3.36547C3.22042 22.6587 3.08133 22.6011 2.97877 22.4985C2.87621 22.396 2.81859 22.2569 2.81859 22.1118C2.8233 18.3145 4.29762 14.6664 6.93258 11.932C9.56753 9.19767 13.1586 7.58933 16.9531 7.44408V6.01564H14.2187C14.0737 6.01564 13.9346 5.95802 13.832 5.85546C13.7295 5.7529 13.6719 5.61381 13.6719 5.46876C13.6719 5.32372 13.7295 5.18462 13.832 5.08207C13.9346 4.97951 14.0737 4.92189 14.2187 4.92189H20.7812C20.9263 4.92189 21.0654 4.97951 21.1679 5.08207C21.2705 5.18462 21.3281 5.32372 21.3281 5.46876C21.3281 5.61381 21.2705 5.7529 21.1679 5.85546C21.0654 5.95802 20.9263 6.01564 20.7812 6.01564H18.0469V7.44408C21.8414 7.58933 25.4325 9.19767 28.0674 11.932C30.7024 14.6664 32.1767 18.3145 32.1814 22.1118C32.1814 22.2569 32.1238 22.396 32.0212 22.4985C31.9187 22.6011 31.7796 22.6587 31.6345 22.6587H22.7582V26.2763H30.3598C30.9467 26.2764 31.5096 26.5095 31.9248 26.9244C32.34 27.3393 32.5735 27.902 32.5741 28.4889ZM3.92328 21.5649H31.0767C30.9359 18.0585 29.444 14.7424 26.9132 12.3113C24.3825 9.88011 21.0093 8.52236 17.5 8.52236C13.9907 8.52236 10.6175 9.88011 8.08676 12.3113C5.55603 14.7424 4.06406 18.0585 3.92328 21.5649ZM13.3355 26.2763H21.6645V22.6587H13.3355V26.2763ZM31.4803 28.4889C31.48 28.1924 31.3621 27.908 31.1525 27.6982C30.9428 27.4885 30.6585 27.3704 30.362 27.37H4.63804C4.34147 27.3704 4.05719 27.4885 3.84753 27.6982C3.63788 27.908 3.51997 28.1924 3.51968 28.4889V29.0839C3.51997 29.3805 3.63788 29.6648 3.84753 29.8746C4.05719 30.0844 4.34147 30.2024 4.63804 30.2028H30.362C30.6585 30.2024 30.9428 30.0844 31.1525 29.8746C31.3621 29.6648 31.48 29.3805 31.4803 29.0839V28.4889ZM7.45773 6.35197L7.46648 6.36619L8.39125 7.72189C8.4415 7.79547 8.50898 7.85566 8.5878 7.89721C8.66662 7.93877 8.75441 7.96044 8.84351 7.96033C8.94308 7.96058 9.04083 7.93365 9.12621 7.88243C9.21159 7.83121 9.28138 7.75766 9.32803 7.6697C9.37468 7.58174 9.39644 7.48271 9.39095 7.3833C9.38546 7.28388 9.35293 7.18785 9.29687 7.10556L7.13836 3.94244C7.09789 3.88308 7.04612 3.83228 6.98602 3.79292C6.92592 3.75357 6.85865 3.72644 6.78807 3.71309C6.71748 3.69973 6.64495 3.70041 6.57463 3.71509C6.5043 3.72976 6.43756 3.75814 6.3782 3.79861C6.31884 3.83908 6.26804 3.89084 6.22869 3.95094C6.18934 4.01105 6.16221 4.07831 6.14885 4.1489C6.1355 4.21949 6.13617 4.29201 6.15085 4.36234C6.16552 4.43266 6.1939 4.49941 6.23437 4.55877L7.45773 6.35197ZM5.52343 11.4018C5.64239 11.4021 5.75821 11.3636 5.85332 11.2922C5.94843 11.2207 6.01766 11.1202 6.05049 11.0059C6.08333 10.8916 6.07799 10.7696 6.03528 10.6586C5.99257 10.5476 5.91482 10.4535 5.81382 10.3906L4.4264 9.51564L4.41382 9.50798L2.57578 8.35025C2.51502 8.31077 2.44702 8.28376 2.37573 8.27079C2.30444 8.25782 2.23128 8.25915 2.16051 8.27469C2.08974 8.29024 2.02276 8.31969 1.96347 8.36134C1.90418 8.403 1.85376 8.45602 1.81513 8.51732C1.77651 8.57863 1.75045 8.647 1.73848 8.71846C1.7265 8.78993 1.72885 8.86306 1.74538 8.9336C1.76191 9.00415 1.7923 9.07071 1.83477 9.12942C1.87725 9.18812 1.93097 9.2378 1.99281 9.27556L5.23031 11.3203C5.31834 11.3747 5.41999 11.4029 5.52343 11.4018ZM26.1581 7.96033C26.2472 7.96044 26.335 7.93877 26.4138 7.89721C26.4927 7.85566 26.5601 7.79547 26.6104 7.72189L27.5352 6.36619L27.5439 6.35197L28.7656 4.55877C28.8061 4.49941 28.8345 4.43266 28.8491 4.36234C28.8638 4.29201 28.8645 4.21949 28.8511 4.1489C28.8378 4.07831 28.8107 4.01105 28.7713 3.95094C28.732 3.89084 28.6812 3.83908 28.6218 3.79861C28.5624 3.75814 28.4957 3.72976 28.4254 3.71509C28.355 3.70041 28.2825 3.69973 28.2119 3.71309C28.1413 3.72644 28.0741 3.75357 28.014 3.79292C27.9539 3.83228 27.9021 3.88308 27.8616 3.94244L25.7031 7.10556C25.6472 7.1877 25.6147 7.28352 25.6091 7.38275C25.6035 7.48197 25.6251 7.58084 25.6715 7.66873C25.7178 7.75662 25.7873 7.83021 25.8724 7.88158C25.9574 7.93296 26.0549 7.96018 26.1543 7.96033H26.1581ZM33.18 8.52087C33.1026 8.39827 32.9797 8.31143 32.8383 8.27943C32.6968 8.24743 32.5485 8.27291 32.4259 8.35025L30.5878 9.50962L30.5752 9.51728L29.1862 10.3906C29.0629 10.468 28.9754 10.5912 28.9429 10.7331C28.9105 10.875 28.9357 11.024 29.0131 11.1472C29.0905 11.2705 29.2136 11.358 29.3555 11.3905C29.4974 11.4229 29.6464 11.3977 29.7697 11.3203L33.0072 9.2783C33.0684 9.24001 33.1214 9.18998 33.1632 9.1311C33.2049 9.07222 33.2346 9.00565 33.2505 8.93524C33.2664 8.86483 33.2683 8.79196 33.2559 8.72084C33.2435 8.64972 33.2171 8.58176 33.1784 8.52087H33.18Z" fill="black"/>
</svg>
