<svg width="35" height="35" viewBox="0 0 35 35" fill="none" xmlns="http://www.w3.org/2000/svg">
<g clip-path="url(#clip0_22004_882)">
<path d="M9.54543 16.7045C9.54543 16.2649 9.18964 15.9091 8.74995 15.9091C8.31026 15.9091 7.95447 16.2649 7.95447 16.7045C7.95447 18.7934 10.2585 21.6614 10.5211 21.9822C10.6788 22.1733 10.9071 22.2727 11.1371 22.2727C11.3142 22.2727 11.4929 22.2137 11.6412 22.0925C11.9806 21.8136 12.0296 21.3126 11.7515 20.9723C10.8986 19.933 9.54543 17.8557 9.54543 16.7045Z" fill="black"/>
<path d="M26.25 15.9091C25.8104 15.9091 25.4546 16.2649 25.4546 16.7045C25.4546 17.8519 24.1013 19.9314 23.2484 20.9731C22.9704 21.3126 23.02 21.8137 23.3596 22.0925C23.5071 22.2137 23.6858 22.2727 23.8637 22.2727C24.0936 22.2727 24.3212 22.1733 24.4789 21.9822C24.7415 21.6614 27.0455 18.7934 27.0455 16.7045C27.0455 16.2649 26.6897 15.9091 26.25 15.9091Z" fill="black"/>
<path d="M17.5001 15.9091C17.0604 15.9091 16.7046 16.2649 16.7046 16.7045V21.4773C16.7046 21.917 17.0604 22.2727 17.5001 22.2727C17.9398 22.2727 18.2955 21.917 18.2955 21.4773V16.7045C18.2955 16.2649 17.9397 15.9091 17.5001 15.9091Z" fill="black"/>
<path d="M26.25 3.18185C25.768 3.18185 25.2642 3.24561 24.7411 3.34278C22.9891 1.30049 20.3957 0 17.5 0C14.6044 0 12.0109 1.30049 10.259 3.3427C9.73577 3.24561 9.23203 3.18177 8.75006 3.18177C3.9252 3.18185 0 7.10704 0 11.9318C0 15.2379 1.86435 18.2434 4.79137 19.7294L4.77586 31.7506C4.77512 32.6183 5.11219 33.4339 5.72511 34.0476C6.33878 34.6621 7.15365 35 8.02139 35H26.9818C28.7716 35 30.2273 33.5442 30.2273 31.7545V19.7178C33.1435 18.2279 35.0001 15.227 35.0001 11.9318C35 7.10704 31.0748 3.18185 26.25 3.18185ZM28.6364 31.7545C28.6364 32.6665 27.8938 33.4092 26.9817 33.4092H8.02132C7.57932 33.4092 7.16372 33.2367 6.85066 32.9237C6.53834 32.6106 6.36593 32.195 6.36667 31.7523L6.37085 28.6364H28.6364V31.7545ZM29.1289 18.4796C29.0869 18.4966 29.0473 18.5169 29.01 18.5409C28.9098 18.6031 28.8274 18.6855 28.7661 18.7802C28.7039 18.8741 28.662 18.9829 28.6449 19.0994C28.6379 19.1437 28.6356 19.188 28.6363 19.2331V27.0454H6.37286L6.38308 19.2439C6.38383 19.2004 6.38151 19.1561 6.37532 19.1134C6.35825 18.9929 6.31395 18.8811 6.24944 18.784C6.18882 18.6931 6.10962 18.6139 6.01327 18.5532C5.97367 18.5284 5.93168 18.5066 5.88821 18.4887C3.27737 17.347 1.59089 14.7757 1.59089 11.9318C1.59089 7.98403 4.80226 4.77273 8.74998 4.77273C8.90428 4.77273 9.06714 4.79137 9.22696 4.80398C8.42215 6.20269 7.9545 7.819 7.9545 9.54546C7.9545 9.98515 8.31029 10.3409 8.74998 10.3409C9.18967 10.3409 9.54546 9.98515 9.54546 9.54546C9.54546 5.15955 13.1141 1.59089 17.5 1.59089C21.886 1.59089 25.4545 5.15955 25.4545 9.54546C25.4545 9.98515 25.8103 10.3409 26.25 10.3409C26.6897 10.3409 27.0455 9.98515 27.0455 9.54546C27.0455 7.819 26.5778 6.20276 25.773 4.80398C25.9329 4.79137 26.0957 4.77273 26.25 4.77273C30.1978 4.77273 33.4091 7.98411 33.4091 11.9318C33.4091 14.7656 31.7296 17.3337 29.1289 18.4796Z" fill="black"/>
</g>
<defs>
<clipPath id="clip0_22004_882">
<rect width="35" height="35" fill="white"/>
</clipPath>
</defs>
</svg>
