<svg width="35" height="35" viewBox="0 0 35 35" fill="none" xmlns="http://www.w3.org/2000/svg">
<g clip-path="url(#clip0_22004_879)">
<path d="M34.1131 18.8785H29.4827L26.1759 15.2468C25.8611 14.9011 25.3321 14.8591 24.9668 15.1507L22.9153 16.7885L17.5035 8.2402C17.3409 7.9834 17.0581 7.8277 16.7542 7.8277C16.4503 7.8277 16.1675 7.9834 16.0049 8.2402L11.3839 15.5394L9.6513 13.004C9.48605 12.7621 9.212 12.6175 8.91903 12.6175C8.62606 12.6175 8.35211 12.7621 8.18676 13.004L4.17231 18.8785H0.886887C0.39703 18.8785 0 19.2755 0 19.7654C0 20.2552 0.39703 20.6523 0.886887 20.6523H2.96013L2.25437 21.6849C1.97796 22.0893 2.08182 22.6412 2.48624 22.9176C2.63928 23.0222 2.8135 23.0723 2.98585 23.0723C3.26897 23.0723 3.54715 22.937 3.71891 22.6857L4.06086 22.1853L8.91913 15.0763L10.3509 17.1714L7.17659 22.1854L4.88133 25.811C4.6193 26.2249 4.74238 26.7727 5.15626 27.0347C5.30349 27.1278 5.46756 27.1723 5.62986 27.1723C5.92362 27.1723 6.21117 27.0263 6.37997 26.7597L6.80144 26.0939L16.7543 10.3728L24.8402 23.1451L25.0421 23.464C25.3041 23.8778 25.852 24.0009 26.2659 23.7389C26.6425 23.5005 26.7773 23.0255 26.6011 22.63C26.5837 22.591 26.5643 22.5524 26.5408 22.5152L23.8699 18.2963L25.424 17.0556L30.7501 22.905L31.3708 23.5867C31.5458 23.7789 31.7858 23.8765 32.0268 23.8765C32.2399 23.8765 32.4537 23.8001 32.6236 23.6454C32.9858 23.3156 33.0121 22.7547 32.6824 22.3925L31.0978 20.6523H34.1132C34.6031 20.6523 35.0001 20.2552 35.0001 19.7654C35.0001 19.2755 34.603 18.8785 34.1131 18.8785Z" fill="black"/>
</g>
<defs>
<clipPath id="clip0_22004_879">
<rect width="35" height="35" fill="white"/>
</clipPath>
</defs>
</svg>
