<svg width="35" height="35" viewBox="0 0 35 35" fill="none" xmlns="http://www.w3.org/2000/svg">
<path d="M19.7698 6.43418C19.9548 6.07963 20.0532 5.68628 20.0568 5.2864C20.0568 3.86418 18.9038 2.71124 17.4816 2.71124C16.0594 2.71124 14.9065 3.86418 14.9065 5.2864C14.91 5.68628 15.0084 6.07963 15.1934 6.43418C9.04246 6.7432 3.42127 8.31772 3.42127 11.0621C3.41925 11.4684 3.74703 11.7995 4.15335 11.8015C4.1792 11.8016 4.20495 11.8004 4.23061 11.7979H30.8062C31.2125 11.7979 31.5419 11.4684 31.5419 11.0621C31.5419 8.31772 25.9428 6.7432 19.7698 6.43418ZM17.5184 4.19012C18.1198 4.19012 18.6073 4.67765 18.6073 5.27904C18.6073 5.88043 18.1198 6.36796 17.5184 6.36796C16.917 6.36796 16.4295 5.88043 16.4295 5.27904C16.4295 4.67765 16.917 4.19012 17.5184 4.19012ZM5.41518 10.3558C6.77633 9.13441 11.2056 7.83947 17.5184 7.83947V7.8689C23.8312 7.8689 28.2605 9.16384 29.6216 10.3558H5.41518Z" fill="black"/>
<path d="M6.8057 15.3442C6.39938 15.3442 6.06995 15.6737 6.06995 16.08V23.9894C6.06995 24.3957 6.39938 24.7252 6.8057 24.7252C7.21203 24.7252 7.54146 24.3957 7.54146 23.9894V16.08C7.54146 15.6737 7.21203 15.3442 6.8057 15.3442Z" fill="black"/>
<path d="M34.2642 15.5429H31.5419V13.4386C31.5419 13.0323 31.2125 12.7029 30.8062 12.7029H4.23061C3.82429 12.7029 3.49485 13.0323 3.49485 13.4386V15.5429H0.735758C0.329436 15.5429 0 15.8723 0 16.2787C0 16.685 0.329436 17.0144 0.735758 17.0144H3.50221V27.8742C3.50221 31.1336 5.83456 32.2888 8.02712 32.2888H27.0832C30.3427 32.2888 31.4978 30.0079 31.4978 27.8742V17.0144H34.2642C34.6706 17.0144 35 16.685 35 16.2787C35 15.8723 34.6706 15.5429 34.2642 15.5429ZM30.0704 27.8742C30.0704 29.2206 29.5554 30.8172 27.1274 30.8172H7.99769C6.85726 30.8172 4.94429 30.4346 4.94429 27.8742V14.1744H30.0704V27.8742Z" fill="black"/>
</svg>
