<svg width="35" height="35" viewBox="0 0 35 35" fill="none" xmlns="http://www.w3.org/2000/svg">
<path d="M28.7036 0.625651C27.7958 -0.237042 26.361 -0.202123 25.4963 0.703592L21.933 4.44441C19.2159 4.03097 16.4574 4.86733 14.4273 6.72L14.4101 6.7038C14.1509 6.45693 13.7407 6.4669 13.4938 6.72608C13.4938 6.72608 13.4938 6.72608 13.4937 6.72616L12.4688 7.80185C12.1467 8.13808 11.9725 8.58928 11.9851 9.05473C11.9884 9.1761 11.9431 9.29382 11.8592 9.38157L11.8506 9.39056C9.36158 12.0046 7.1363 14.8575 5.20699 17.908L1.71919 23.4263C1.14387 24.341 1.29133 25.5341 2.07211 26.2811L8.59603 32.4953C9.37997 33.2389 10.5789 33.3283 11.4645 32.7092L16.8068 28.957C19.7598 26.8821 22.5011 24.5211 24.991 21.9084L24.9996 21.8994C25.0837 21.8117 25.1989 21.7607 25.3203 21.7573C25.7859 21.7472 26.228 21.5514 26.5483 21.2134L27.5733 20.1373C27.8202 19.8781 27.8102 19.4678 27.5511 19.221C27.5511 19.221 27.5511 19.221 27.551 19.2209L27.5338 19.2047C29.2858 17.0869 29.9871 14.2909 29.442 11.597L33.0054 7.85614C33.868 6.9484 33.8332 5.51363 32.9274 4.64883L28.7036 0.625651ZM27.1153 1.296C27.3734 1.28815 27.6236 1.3848 27.8095 1.56402L32.0333 5.5876C32.4214 5.95826 32.4364 6.57311 32.0667 6.96225L31.8432 7.19721L26.2115 1.83235L26.435 1.5974C26.6124 1.41008 26.8574 1.30151 27.1153 1.296ZM30.5019 8.60443L24.8704 3.24047L25.3173 2.7712L30.9492 8.13565L30.5019 8.60443ZM28.7139 10.4821L23.0822 5.1176L23.9762 4.17891L29.6084 9.54377L28.7139 10.4821ZM25.6096 20.3193C25.526 20.4076 25.4104 20.4588 25.2888 20.4614C24.8235 20.4713 24.3815 20.6671 24.0614 21.0049L24.0528 21.0139C21.6218 23.565 18.9452 25.8703 16.062 27.8963L10.7197 31.6484C10.3402 31.9138 9.8263 31.8755 9.49032 31.5568L2.96616 25.3425C2.63171 25.0223 2.56868 24.511 2.8153 24.1191L6.3035 18.601C8.1868 15.6227 10.3591 12.8374 12.7888 10.2852L12.7974 10.2762C13.1194 9.93995 13.2935 9.48884 13.281 9.02338C13.2777 8.90177 13.3232 8.78397 13.4074 8.69614L13.9853 8.08939L26.1876 19.7125L25.6096 20.3193ZM26.5931 18.3084L22.3025 14.2216L15.368 7.61624C17.1366 6.04001 19.5249 5.35159 21.8611 5.74469L28.1468 11.732C28.6529 14.0463 28.0815 16.4652 26.5931 18.3084Z" fill="black"/>
<path d="M19.5465 6.70974C18.8409 6.95394 18.1678 7.28376 17.5425 7.6917C17.2428 7.88736 17.1583 8.28897 17.354 8.58874C17.5497 8.88851 17.9513 8.97294 18.251 8.77727C18.7875 8.42719 19.3649 8.14419 19.9703 7.93467C20.3086 7.8176 20.4879 7.44856 20.3709 7.11022C20.2539 6.77189 19.8848 6.59251 19.5465 6.70958V6.70974Z" fill="black"/>
<path d="M10.2874 16.2106C9.9999 15.9975 9.59391 16.0577 9.38075 16.3454C8.57769 17.4289 7.80509 18.5563 7.0845 19.6962C6.89322 19.9989 6.98347 20.3992 7.28608 20.5905C7.58869 20.7817 7.989 20.6915 8.18029 20.3889C8.88378 19.2759 9.63815 18.1752 10.4223 17.1172C10.6353 16.8296 10.575 16.4238 10.2874 16.2106Z" fill="black"/>
<path d="M12.334 13.6793C12.0597 13.4493 11.651 13.4851 11.4209 13.7592C11.28 13.9272 11.1402 14.096 11.0014 14.2655C10.7746 14.5425 10.8154 14.951 11.0924 15.1777C11.3695 15.4043 11.7779 15.3637 12.0046 15.0866C12.14 14.921 12.2765 14.7563 12.4141 14.5924C12.6441 14.3182 12.6083 13.9094 12.334 13.6793Z" fill="black"/>
<path d="M12.3291 5.00596C12.5064 5.0062 12.6761 4.93352 12.7983 4.80503L12.8752 4.72401C13.5648 3.99629 14.5169 3.57467 15.5192 3.55328C15.8771 3.54453 16.1603 3.24727 16.1515 2.88933C16.1428 2.53138 15.8455 2.24822 15.4876 2.25697C14.1415 2.28606 12.8631 2.85238 11.9371 3.8298L11.8604 3.91025C11.6134 4.16935 11.6232 4.57963 11.8823 4.82658C12.0028 4.94146 12.163 5.00555 12.3295 5.00563L12.3291 5.00596Z" fill="black"/>
<path d="M14.7207 0.63211C14.7111 0.274734 14.4145 -0.00769876 14.057 0.000160106C12.7109 0.029246 11.4323 0.595571 10.5063 1.57307L10.4296 1.6536C10.1827 1.91278 10.1927 2.32306 10.4518 2.57001C10.711 2.81688 11.1213 2.80691 11.3682 2.54773L11.445 2.4672C12.1344 1.7394 13.0863 1.3177 14.0885 1.29606C14.4464 1.28739 14.7295 0.990216 14.7207 0.632353C14.7207 0.632191 14.7207 0.632191 14.7207 0.63211Z" fill="black"/>
<path d="M20.265 30.0642C19.9933 29.8312 19.5841 29.8626 19.3511 30.1343L19.2788 30.2187C18.6281 30.9812 17.6994 31.4518 16.6997 31.5254C16.3427 31.5526 16.0753 31.8639 16.1025 32.2208C16.1282 32.5586 16.4095 32.8195 16.7483 32.8199C16.7649 32.8199 16.7816 32.8192 16.7984 32.8179C18.1413 32.719 19.3887 32.087 20.2627 31.0626L20.3351 30.9782C20.5681 30.7065 20.5367 30.2973 20.265 30.0642Z" fill="black"/>
<path d="M17.6481 34.4012C17.6739 34.7388 17.9551 34.9996 18.2937 35C18.3103 35 18.327 34.9994 18.3438 34.9982C19.6866 34.8993 20.934 34.2672 21.808 33.2429L21.8804 33.1585C22.1168 32.8897 22.0904 32.4802 21.8216 32.2438C21.5528 32.0075 21.1432 32.0338 20.9069 32.3026C20.9035 32.3065 20.9001 32.3105 20.8967 32.3145L20.8243 32.3989C20.1735 33.1614 19.2448 33.6319 18.2451 33.7056C17.8881 33.7328 17.6209 34.0442 17.6481 34.4012Z" fill="black"/>
</svg>
