<svg width="35" height="35" viewBox="0 0 35 35" fill="none" xmlns="http://www.w3.org/2000/svg">
<path d="M29.8349 14.8784C29.944 15.1417 30.1985 15.3006 30.4667 15.3006C30.5539 15.3006 30.6425 15.2838 30.7281 15.2483L32.5963 14.4745C32.9451 14.33 33.1107 13.9301 32.9662 13.5814C32.8217 13.2326 32.4219 13.067 32.073 13.2115L30.2048 13.9853C29.8561 14.1297 29.6904 14.5296 29.8349 14.8784Z" fill="black"/>
<path d="M34.3164 20.6522H28.0046C27.6511 15.1649 23.0751 10.8085 17.5 10.8085C11.9249 10.8085 7.34897 15.1649 6.99542 20.6522H0.683594C0.306113 20.6522 0 20.9583 0 21.3358C0 21.7133 0.306113 22.0194 0.683594 22.0194H14.4238C14.8013 22.0194 15.1074 21.7133 15.1074 21.3358C15.1074 20.9583 14.8013 20.6522 14.4238 20.6522H8.36534C8.71616 15.9194 12.679 12.1757 17.5 12.1757C22.321 12.1757 26.2838 15.9194 26.6347 20.6522H20.5762C20.1987 20.6522 19.8926 20.9583 19.8926 21.3358C19.8926 21.7133 20.1987 22.0194 20.5762 22.0194H34.3164C34.6939 22.0194 35 21.7133 35 21.3358C35 20.9583 34.6939 20.6522 34.3164 20.6522Z" fill="black"/>
<path d="M17.5 9.17135C17.8775 9.17135 18.1836 8.86523 18.1836 8.48775V2.03271C18.1836 1.65523 17.8775 1.34912 17.5 1.34912C17.1225 1.34912 16.8164 1.65523 16.8164 2.03271V8.48782C16.8164 8.8653 17.1225 9.17135 17.5 9.17135Z" fill="black"/>
<path d="M22.6092 9.00092C22.6948 9.03633 22.7833 9.05315 22.8705 9.05315C23.1387 9.05315 23.3933 8.89421 23.5024 8.63096L24.2762 6.7627C24.4206 6.41386 24.255 6.01403 23.9062 5.86952C23.5574 5.72535 23.1575 5.89078 23.013 6.23948L22.2392 8.10774C22.0948 8.45651 22.2604 8.85641 22.6092 9.00092Z" fill="black"/>
<path d="M26.585 12.9345C26.76 12.9345 26.9349 12.8677 27.0684 12.7342L31.6981 8.10452C31.965 7.83758 31.965 7.40473 31.6981 7.13772C31.4311 6.87084 30.9984 6.87084 30.7313 7.13772L26.1016 11.7674C25.8346 12.0344 25.8346 12.4672 26.1016 12.7342C26.2351 12.8677 26.4101 12.9345 26.585 12.9345Z" fill="black"/>
<path d="M11.4974 8.63094C11.6065 8.89419 11.861 9.05313 12.1293 9.05313C12.2164 9.05313 12.305 9.03631 12.3906 9.0009C12.7394 8.85639 12.905 8.45648 12.7606 8.10772L11.9867 6.23945C11.8422 5.89068 11.4424 5.72525 11.0936 5.86949C10.7447 6.014 10.5791 6.41391 10.7236 6.76268L11.4974 8.63094Z" fill="black"/>
<path d="M2.4036 15.8226L4.2718 16.5964C4.35738 16.6319 4.44598 16.6487 4.53313 16.6487C4.80138 16.6487 5.05588 16.4897 5.16491 16.2265C5.30942 15.8777 5.14379 15.4778 4.79502 15.3334L2.92682 14.5596C2.57792 14.4152 2.17822 14.5807 2.03364 14.9294C1.8892 15.2782 2.05483 15.6781 2.4036 15.8226Z" fill="black"/>
<path d="M7.93179 12.7343C8.0653 12.8677 8.24023 12.9345 8.41516 12.9345C8.59009 12.9345 8.76502 12.8677 8.89853 12.7343C9.16547 12.4673 9.16547 12.0345 8.89853 11.7675L4.26882 7.13778C4.00181 6.8709 3.56909 6.8709 3.30201 7.13778C3.03507 7.40472 3.03507 7.83757 3.30201 8.10458L7.93179 12.7343Z" fill="black"/>
<path d="M29.0282 25.6857C28.5157 26.1983 27.8342 26.4806 27.1093 26.4806C26.3844 26.4806 25.703 26.1983 25.1904 25.6857C23.5992 24.0946 21.0101 24.0946 19.4189 25.6857C18.9063 26.1983 18.2248 26.4806 17.5 26.4806C16.7751 26.4806 16.0936 26.1983 15.581 25.6857C13.9898 24.0946 11.4007 24.0946 9.80953 25.6857C9.29698 26.1983 8.61543 26.4806 7.89062 26.4806C7.16573 26.4806 6.48426 26.1983 5.9717 25.6857C5.70476 25.4189 5.27204 25.4188 5.0049 25.6857C4.73795 25.9526 4.73795 26.3855 5.0049 26.6525C5.77565 27.4232 6.80056 27.8477 7.89062 27.8477C8.98068 27.8477 10.0055 27.4232 10.7763 26.6525C11.8345 25.5943 13.5562 25.5943 14.6143 26.6525C15.3851 27.4232 16.41 27.8477 17.5 27.8477C18.5901 27.8477 19.6149 27.4232 20.3858 26.6525C21.4438 25.5943 23.1655 25.5943 24.2237 26.6525C24.9945 27.4232 26.0194 27.8477 27.1094 27.8477C28.1995 27.8477 29.2243 27.4232 29.9952 26.6525C30.2621 26.3855 30.2621 25.9527 29.9952 25.6857C29.728 25.4188 29.2951 25.4188 29.0282 25.6857Z" fill="black"/>
<path d="M24.2236 31.4907C23.7111 32.0033 23.0295 32.2856 22.3047 32.2856C21.5798 32.2856 20.8983 32.0033 20.3857 31.4907C19.615 30.7199 18.5901 30.2954 17.5 30.2954C16.41 30.2954 15.3851 30.7199 14.6143 31.4907C14.1017 32.0033 13.4202 32.2856 12.6953 32.2856C11.9704 32.2856 11.2889 32.0033 10.7764 31.4907C10.5094 31.2238 10.0767 31.2238 9.80958 31.4907C9.54264 31.7576 9.54264 32.1905 9.80958 32.4575C11.4009 34.0487 13.9899 34.0485 15.5811 32.4575C16.0937 31.9449 16.7751 31.6626 17.5 31.6626C18.2249 31.6626 18.9064 31.9449 19.4189 32.4575C20.2146 33.2531 21.2596 33.6508 22.3047 33.6508C23.3497 33.6508 24.3948 33.2531 25.1904 32.4575C25.4574 32.1905 25.4574 31.7577 25.1904 31.4907C24.9234 31.2238 24.4907 31.2238 24.2236 31.4907Z" fill="black"/>
<path d="M17.9832 21.8192C18.1104 21.692 18.1836 21.5157 18.1836 21.3359C18.1836 21.1561 18.1104 20.9797 17.9832 20.8526C17.8562 20.7255 17.6798 20.6523 17.5 20.6523C17.3195 20.6523 17.1438 20.7254 17.0167 20.8526C16.8896 20.9797 16.8164 21.1561 16.8164 21.3359C16.8164 21.5157 16.8895 21.692 17.0167 21.8192C17.1439 21.9463 17.3202 22.0195 17.5 22.0195C17.6798 22.0195 17.8562 21.9463 17.9832 21.8192Z" fill="black"/>
</svg>
