<svg width="34" height="34" viewBox="0 0 34 34" fill="none" xmlns="http://www.w3.org/2000/svg">
<path d="M31.3438 22.7602H28.0929C27.1798 20.7842 25.9922 18.947 24.5654 17.303C24.4716 17.2001 24.3412 17.1382 24.2022 17.1305C24.0632 17.1229 23.9267 17.1701 23.8222 17.2621C23.7177 17.354 23.6534 17.4833 23.6433 17.6222C23.6332 17.761 23.6779 17.8983 23.768 18.0044C25.0173 19.4462 26.0728 21.045 26.9077 22.7602H18.7705C16.4109 22.2986 15.626 21.2573 15.6242 21.2573C15.2755 20.5975 14.7202 20.0702 14.0434 19.756C13.3665 19.4417 12.6054 19.3579 11.8764 19.5172C11.0315 18.4464 10.1252 17.9271 9.18018 17.9754C7.96749 18.035 7.09434 19.0296 6.71511 19.5551C6.48 19.5256 6.24265 19.5182 6.00616 19.533C6.76054 17.9078 8.41676 14.6946 10.2787 13.3352C12.1425 12.0973 13.7922 14.3726 14.8873 16.6259C15.6011 18.2454 16.767 19.6246 18.2451 20.5979C18.8957 21.0152 21.4786 22.3852 21.6739 21.2589C21.6843 21.1899 21.6811 21.1196 21.6643 21.0518C21.6476 20.9841 21.6176 20.9204 21.5762 20.8642C21.5348 20.8081 21.4827 20.7607 21.423 20.7247C21.3632 20.6887 21.297 20.6648 21.228 20.6544C19.3856 20.291 17.7606 19.2166 16.7046 17.6638C17.6937 15.9793 19.4863 14.3486 21.5279 15.8468C21.9351 16.0861 22.5041 17.0264 23.051 16.4698C23.098 16.4182 23.1342 16.3578 23.1578 16.2922C23.1814 16.2266 23.1918 16.1569 23.1885 16.0872C23.1851 16.0176 23.1681 15.9493 23.1383 15.8862C23.1085 15.8231 23.0666 15.7665 23.015 15.7196C21.5076 14.0687 19.0291 13.6089 17.3323 15.2103C16.8701 15.6524 16.4543 16.1406 16.0914 16.6673C16.0091 16.5108 15.9295 16.3522 15.8558 16.1891C14.4083 13.2062 12.3212 10.7832 9.65205 12.4771C7.10006 14.3408 5.03984 19.0366 4.65265 19.9591C3.36952 20.6759 3.06 22.6145 3.14593 22.7602H2.65628C2.51687 22.7625 2.38393 22.8194 2.28614 22.9188C2.18835 23.0182 2.13354 23.1521 2.13354 23.2915C2.13355 23.4309 2.18836 23.5648 2.28616 23.6641C2.38396 23.7635 2.5169 23.8205 2.65631 23.8227C4.84146 23.8237 30.065 23.822 31.3438 23.8227C31.4832 23.8205 31.6161 23.7635 31.7139 23.6641C31.8117 23.5648 31.8665 23.4309 31.8665 23.2915C31.8665 23.1521 31.8117 23.0182 31.7139 22.9188C31.6161 22.8194 31.4832 22.7625 31.3438 22.7602ZM4.17023 22.7602C4.29928 21.7603 4.95648 20.2059 6.8604 20.656C6.96994 20.6781 7.08365 20.6653 7.18553 20.6194C7.28742 20.5735 7.37237 20.4969 7.42845 20.4002C7.43598 20.3873 8.20043 19.0851 9.23595 19.0363C9.89145 18.9995 10.5576 19.4794 11.2429 20.4433C11.3126 20.5414 11.4136 20.613 11.5293 20.6462C11.645 20.6795 11.7685 20.6725 11.8797 20.6264C11.9482 20.5974 13.5718 19.9489 14.7318 21.8337C15.0237 22.2064 15.3832 22.5208 15.7915 22.7602H4.17023Z" fill="#616161"/>
<path d="M27.9345 25.8756H6.06555C5.92608 25.8778 5.79305 25.9347 5.69519 26.0341C5.59733 26.1335 5.54248 26.2674 5.54248 26.4069C5.54248 26.5464 5.59734 26.6803 5.69521 26.7796C5.79308 26.879 5.92611 26.936 6.06558 26.9381H27.9345C28.074 26.9359 28.207 26.879 28.3048 26.7796C28.4027 26.6802 28.4576 26.5463 28.4576 26.4068C28.4575 26.2674 28.4027 26.1335 28.3048 26.0341C28.207 25.9347 28.0739 25.8778 27.9345 25.8756Z" fill="#616161"/>
<path d="M24.5255 28.991H9.47459C9.33506 28.993 9.20194 29.0499 9.104 29.1493C9.00607 29.2487 8.95117 29.3827 8.95117 29.5222C8.95118 29.6618 9.00608 29.7957 9.10402 29.8951C9.20196 29.9945 9.33508 30.0514 9.47461 30.0535H24.5255C24.665 30.0514 24.7981 29.9945 24.896 29.8951C24.994 29.7957 25.0489 29.6618 25.0489 29.5222C25.0489 29.3827 24.994 29.2487 24.896 29.1493C24.7981 29.0499 24.665 28.993 24.5255 28.991Z" fill="#616161"/>
<path d="M24.5254 11.2294C27.8046 11.1252 27.8034 6.37101 24.5253 6.26709C21.2463 6.37143 21.2466 11.1258 24.5254 11.2294ZM24.5254 7.32959C24.8989 7.33375 25.2557 7.48505 25.5184 7.75065C25.781 8.01625 25.9283 8.37473 25.9283 8.74827C25.9283 9.12181 25.781 9.48028 25.5183 9.74587C25.2557 10.0115 24.8989 10.1628 24.5253 10.1669C24.1518 10.1627 23.795 10.0114 23.5324 9.74584C23.2697 9.48024 23.1224 9.12177 23.1224 8.74823C23.1224 8.37468 23.2697 8.01622 23.5324 7.75062C23.7951 7.48503 24.1519 7.33374 24.5254 7.32959Z" fill="#616161"/>
<path d="M24.5253 5.52422C24.6628 5.52226 24.7939 5.46629 24.8904 5.3684C24.9869 5.27051 25.041 5.13858 25.041 5.00112C25.041 4.86367 24.9869 4.73173 24.8904 4.63385C24.7939 4.53596 24.6628 4.47999 24.5253 4.47803C24.3879 4.47999 24.2567 4.53596 24.1602 4.63385C24.0637 4.73173 24.0096 4.86367 24.0096 5.00112C24.0096 5.13858 24.0637 5.27051 24.1602 5.3684C24.2567 5.46629 24.3879 5.52226 24.5253 5.52422Z" fill="#616161"/>
<path d="M22.2455 6.46855C22.3405 6.36981 22.393 6.23776 22.3916 6.10076C22.3903 5.96377 22.3353 5.83275 22.2384 5.73588C22.1416 5.639 22.0105 5.58399 21.8735 5.58267C21.7366 5.58134 21.6045 5.63381 21.5058 5.72879C21.4108 5.82752 21.3583 5.95958 21.3596 6.09657C21.361 6.23357 21.416 6.36458 21.5129 6.46146C21.6097 6.55833 21.7407 6.61335 21.8777 6.61467C22.0147 6.616 22.1468 6.56353 22.2455 6.46855Z" fill="#616161"/>
<path d="M20.7781 9.27141C20.9156 9.26945 21.0467 9.21348 21.1432 9.11559C21.2397 9.0177 21.2938 8.88577 21.2938 8.74831C21.2938 8.61086 21.2397 8.47892 21.1432 8.38104C21.0467 8.28315 20.9156 8.22718 20.7781 8.22522C20.6407 8.22718 20.5096 8.28315 20.4131 8.38104C20.3165 8.47892 20.2625 8.61086 20.2625 8.74831C20.2625 8.88577 20.3165 9.0177 20.4131 9.11559C20.5096 9.21348 20.6407 9.26945 20.7781 9.27141Z" fill="#616161"/>
<path d="M22.2455 11.7679C22.3405 11.6691 22.393 11.5371 22.3916 11.4001C22.3903 11.2631 22.3353 11.1321 22.2384 11.0352C22.1416 10.9383 22.0105 10.8833 21.8735 10.882C21.7366 10.8807 21.6045 10.9331 21.5058 11.0281C21.4108 11.1268 21.3583 11.2589 21.3596 11.3959C21.361 11.5329 21.416 11.6639 21.5129 11.7608C21.6097 11.8577 21.7407 11.9127 21.8777 11.914C22.0147 11.9153 22.1468 11.8628 22.2455 11.7679Z" fill="#616161"/>
<path d="M24.0023 12.4955C24.0044 12.6328 24.0605 12.7639 24.1583 12.8602C24.2562 12.9566 24.388 13.0107 24.5254 13.0107C24.6628 13.0107 24.7946 12.9566 24.8925 12.8602C24.9904 12.7639 25.0464 12.6328 25.0485 12.4955C25.0464 12.3582 24.9904 12.2271 24.8925 12.1308C24.7946 12.0344 24.6628 11.9803 24.5254 11.9803C24.388 11.9803 24.2562 12.0344 24.1583 12.1308C24.0605 12.2271 24.0044 12.3582 24.0023 12.4955Z" fill="#616161"/>
<path d="M26.8051 11.0282C26.7102 11.1269 26.6577 11.2589 26.6591 11.3959C26.6604 11.5329 26.7154 11.6639 26.8123 11.7608C26.9092 11.8576 27.0402 11.9126 27.1771 11.914C27.3141 11.9153 27.4462 11.8629 27.5449 11.7679C27.6399 11.6692 27.6923 11.5371 27.6909 11.4002C27.6896 11.2632 27.6346 11.1322 27.5377 11.0353C27.4409 10.9385 27.3099 10.8834 27.1729 10.8821C27.0359 10.8808 26.9039 10.9332 26.8051 11.0282Z" fill="#616161"/>
<path d="M28.2725 9.27141C28.41 9.26945 28.5411 9.21348 28.6376 9.11559C28.7341 9.0177 28.7882 8.88577 28.7882 8.74831C28.7882 8.61086 28.7341 8.47892 28.6376 8.38104C28.5411 8.28315 28.41 8.22718 28.2725 8.22522C28.1351 8.22718 28.0039 8.28315 27.9074 8.38104C27.8109 8.47892 27.7568 8.61086 27.7568 8.74831C27.7568 8.88577 27.8109 9.0177 27.9074 9.11559C28.0039 9.21348 28.1351 9.26945 28.2725 9.27141Z" fill="#616161"/>
<path d="M27.545 6.46855C27.6399 6.36981 27.6924 6.23776 27.6911 6.10076C27.6898 5.96377 27.6347 5.83275 27.5379 5.73588C27.441 5.639 27.31 5.58399 27.173 5.58267C27.036 5.58134 26.9039 5.63381 26.8052 5.72879C26.7102 5.82752 26.6578 5.95958 26.6591 6.09657C26.6604 6.23357 26.7154 6.36458 26.8123 6.46146C26.9092 6.55833 27.0402 6.61335 27.1772 6.61467C27.3142 6.616 27.4462 6.56353 27.545 6.46855Z" fill="#616161"/>
</svg>
