<svg width="34" height="34" viewBox="0 0 34 34" fill="none" xmlns="http://www.w3.org/2000/svg">
<g clip-path="url(#clip0_22003_359)">
<path d="M1.74192 17.701C1.94039 17.8093 2.14921 17.8976 2.36525 17.9645C2.09982 18.9429 2.3784 19.9886 3.09546 20.7053C3.81251 21.422 4.85833 21.7001 5.83665 21.4342C6.23434 22.7129 7.35286 23.6337 8.68415 23.7785C8.87502 24.3216 9.20179 24.8067 9.63332 25.1878V28.9C9.63332 30.5173 9.31315 32.2241 8.46145 32.7193C8.35832 31.5781 7.97582 29.3805 6.54782 28.4285C6.28744 28.2548 5.93555 28.3251 5.76185 28.5855C5.58816 28.8459 5.65844 29.1978 5.91882 29.3715C6.54281 29.9013 6.96162 30.6329 7.10259 31.4392C6.54497 30.9477 5.84141 30.6529 5.09999 30.6C4.79089 30.6003 4.53978 30.8496 4.53729 31.1587C4.53501 31.4693 4.78157 31.7247 5.09205 31.7333C5.8331 31.8338 6.49587 32.2462 6.91332 32.8667H3.96665C3.65369 32.8667 3.39999 33.1204 3.39999 33.4333C3.39999 33.7463 3.65369 34 3.96665 34H33.4333C33.7463 34 34 33.7463 34 33.4333C34 33.1204 33.7463 32.8667 33.4333 32.8667H32.3V8.49998C33.2389 8.49998 34 7.73887 34 6.79998V6.57615C34.0008 6.24074 33.9022 5.91261 33.7167 5.63322L30.8437 1.32655C30.5286 0.851869 29.9967 0.566564 29.427 0.566651H15.3C15.1109 0.566685 14.9342 0.661061 14.8291 0.818251L14.654 1.08118C13.7129 0.414823 12.4594 0.393901 11.4965 1.02848C10.7765 0.287728 9.75833 -0.0847667 8.73028 0.0164825C7.70224 0.117732 6.77628 0.681701 6.21462 1.54868C6.02936 1.83657 5.88928 2.15112 5.79925 2.48142C4.05717 1.88637 2.13489 2.57205 1.16267 4.13529C0.190443 5.69854 0.425428 7.72588 1.72945 9.02528C1.34214 9.52304 1.13231 10.136 1.13332 10.7667C1.13495 11.1882 1.2318 11.6039 1.41665 11.9827C0.471908 12.6587 -0.0608188 13.7714 0.00503852 14.9312C0.0708958 16.091 0.726727 17.1363 1.74192 17.701ZM9.90475 32.8667C10.4658 31.9974 10.7667 30.6504 10.7667 28.9V25.8706C11.4996 26.132 12.3004 26.132 13.0333 25.8706V28.9C13.0333 30.6504 13.3342 31.9974 13.8952 32.8667H9.90475ZM31.1667 22.1H24.3667V20.9667H31.1667V22.1ZM23.2333 30.6H19.8333V28.9H23.2333V30.6ZM23.2333 27.7667H19.8333V26.0667H23.2333V27.7667ZM23.2333 24.9333H19.8333V23.2333H23.2333V24.9333ZM19.8333 31.7333H23.2333V32.8667H19.8333V31.7333ZM23.2333 22.1H19.8333V15.8667C19.8333 14.9278 20.5944 14.1667 21.5333 14.1667C22.4722 14.1667 23.2333 14.9278 23.2333 15.8667V22.1ZM18.7 22.1H14.1667V21.6393C14.4769 21.4598 14.7572 21.2328 14.9974 20.9667H18.7V22.1ZM16.5093 32.8667C16.5708 32.3801 16.8428 31.945 17.2533 31.6767C17.5334 31.5368 17.647 31.1963 17.5072 30.9162C17.3673 30.6361 17.0268 30.5224 16.7467 30.6623C15.9911 31.1055 15.4842 31.8745 15.3748 32.7437C14.4953 32.2734 14.1667 30.5433 14.1667 28.9V23.2333H18.7V32.8667H16.5093ZM24.3667 32.8667V23.2333H28.9V32.8667H24.3667ZM30.0333 32.8667V23.2333H31.1667V32.8667H30.0333ZM31.1667 19.8333H24.3667V15.8667C24.3667 14.3018 23.0981 13.0333 21.5333 13.0333C19.9685 13.0333 18.7 14.3018 18.7 15.8667V19.8333H15.6632C15.7953 19.4699 15.8641 19.0866 15.8667 18.7C15.8663 18.5522 15.8564 18.4045 15.8372 18.258C16.7688 17.7343 17.3988 16.8019 17.537 15.7422C17.6752 14.6825 17.3054 13.6197 16.5393 12.8747C16.8404 12.4171 17.0006 11.8811 17 11.3333C16.991 10.1809 16.2891 9.14714 15.2212 8.71362C15.2354 8.64335 15.2433 8.57138 15.2541 8.49998H31.1667V19.8333ZM29.427 1.69998C29.6164 1.69996 29.7933 1.79458 29.8985 1.95215L32.7715 6.26165C32.8332 6.35493 32.8663 6.46427 32.8667 6.57615V6.79998C32.8667 7.11295 32.6129 7.36665 32.3 7.36665H15.2586C15.0981 6.28659 14.5014 5.31972 13.6079 4.69198L15.6026 1.69998H29.427ZM5.60319 16.7359C5.52409 16.6081 5.39742 16.5169 5.25108 16.4824C5.10473 16.448 4.9507 16.4731 4.82289 16.5523C4.07496 17.0713 3.10079 17.1325 2.29385 16.711C1.5775 16.3105 1.1336 15.554 1.13332 14.7333C1.13007 13.9957 1.49041 13.3039 2.09665 12.8837C2.43014 13.181 2.8253 13.4009 3.25379 13.5275C3.55392 13.6162 3.86915 13.4448 3.95787 13.1447C4.0466 12.8445 3.87522 12.5293 3.57509 12.4406C2.81393 12.2376 2.27981 11.5543 2.26665 10.7667C2.26398 9.98775 2.79526 9.30842 3.55185 9.12332C3.74864 9.07524 3.90482 8.92582 3.96157 8.73137C4.01832 8.53691 3.96702 8.32694 3.82699 8.18057C3.68696 8.03419 3.47947 7.97364 3.28269 8.02172C3.0433 8.08328 2.81313 8.17626 2.59815 8.29825C1.58734 7.35485 1.40661 5.81899 2.17081 4.66672C2.93502 3.51444 4.4202 3.08344 5.68252 3.64762C5.71557 4.07746 5.82294 4.49831 5.99985 4.89145C6.0908 5.09616 6.29379 5.22808 6.51779 5.22805C6.59706 5.22768 6.67539 5.21089 6.74785 5.17875C6.88517 5.11754 6.99254 5.00427 7.04631 4.86387C7.10009 4.72348 7.09587 4.56747 7.03459 4.43018C6.68573 3.70372 6.73519 2.84887 7.16549 2.16748C7.54003 1.58923 8.15762 1.21312 8.84327 1.14573C9.52892 1.07833 10.2079 1.32699 10.6879 1.82125C10.5052 2.09541 10.3722 2.39965 10.2952 2.71998C10.2244 3.02409 10.4129 3.32819 10.7168 3.39998C10.7597 3.4101 10.8036 3.41523 10.8477 3.41528C11.1104 3.41491 11.3383 3.23407 11.3985 2.97838C11.5796 2.22378 12.2573 1.69384 13.0333 1.69998C13.3897 1.70078 13.7367 1.81445 14.0244 2.02468L12.5857 4.18312C12.3025 4.08421 12.0089 4.01805 11.7107 3.98592C11.5092 3.96658 11.3126 4.05624 11.1951 4.22111C11.0776 4.38598 11.057 4.60102 11.141 4.78523C11.225 4.96943 11.4009 5.09482 11.6025 5.11415C11.9364 5.14432 12.2618 5.23596 12.5624 5.38445C13.5412 5.85674 14.1642 6.84658 14.1667 7.93332C14.1653 8.68113 13.8614 9.39657 13.324 9.91665C13.112 10.1377 13.1139 10.4872 13.3284 10.7058C13.5429 10.9244 13.8923 10.9331 14.1174 10.7253C14.4023 10.4461 14.6437 10.1258 14.8336 9.77498C15.4566 10.0436 15.8619 10.655 15.8667 11.3333C15.8662 11.6494 15.7762 11.9588 15.6071 12.2258C15.3601 12.1059 15.0991 12.0172 14.8302 11.9618C14.6303 11.9209 14.4238 11.9907 14.2897 12.1445C14.1555 12.2983 14.1145 12.5123 14.1821 12.7048C14.2498 12.8973 14.4157 13.0386 14.6166 13.0747C15.7596 13.3066 16.5408 14.3669 16.4238 15.5272C16.3068 16.6876 15.3295 17.5705 14.1633 17.5695C13.8503 17.5695 13.5966 17.8232 13.5966 18.1362C13.5966 18.4491 13.8503 18.7028 14.1633 18.7028C14.3521 18.7012 14.5405 18.684 14.7265 18.6513C14.7265 18.6677 14.7299 18.6836 14.7299 18.7C14.7278 19.6 14.1966 20.4147 13.3739 20.7796C12.8942 20.9833 12.3602 21.0206 11.8569 20.8856C11.6619 20.8309 11.4525 20.8844 11.3076 21.026C11.1628 21.1676 11.1045 21.3757 11.1548 21.5719C11.2051 21.7682 11.3564 21.9226 11.5515 21.977C11.8495 22.0596 12.1574 22.101 12.4667 22.1C12.6566 22.0986 12.8462 22.0816 13.0333 22.049V24.6228C12.2473 25.0677 11.2738 25.0127 10.5428 24.4822C9.80831 23.9394 9.47967 23.0032 9.71379 22.1204C9.79203 21.8171 9.60961 21.5079 9.30635 21.4296C9.0031 21.3514 8.69383 21.5338 8.61559 21.837C8.55444 22.0851 8.521 22.3392 8.51585 22.5947C7.34107 22.3056 6.60594 21.1384 6.85269 19.954C6.89156 19.7553 6.82147 19.551 6.66882 19.4179C6.51617 19.2849 6.30416 19.2435 6.11264 19.3091C5.92112 19.3748 5.77919 19.5377 5.74032 19.7364C5.70693 19.9163 5.68798 20.0986 5.68365 20.2816C5.4979 20.3561 5.30012 20.3963 5.09999 20.4C4.1611 20.4 3.39999 19.6389 3.39999 18.7C3.40339 18.5009 3.44294 18.3041 3.51672 18.1192C4.1924 18.0867 4.848 17.8789 5.41902 17.5162C5.54697 17.4372 5.63827 17.3106 5.67281 17.1642C5.70735 17.0179 5.68231 16.8638 5.60319 16.7359Z" fill="#616161"/>
<path d="M9.06667 17.5666C9.37963 17.5666 9.63333 17.3129 9.63333 16.9999C9.63333 16.687 9.88704 16.4333 10.2 16.4333C10.513 16.4333 10.7667 16.1796 10.7667 15.8666C10.7667 15.5536 10.513 15.2999 10.2 15.2999C9.26112 15.2999 8.5 16.061 8.5 16.9999C8.5 17.3129 8.75371 17.5666 9.06667 17.5666Z" fill="#616161"/>
<path d="M6.8 10.7667C7.11297 10.7667 7.36667 10.513 7.36667 10.2C7.36667 9.88704 7.62038 9.63333 7.93334 9.63333C8.2463 9.63333 8.5 9.37963 8.5 9.06667C8.5 8.75371 8.2463 8.5 7.93334 8.5C6.99445 8.5 6.23334 9.26112 6.23334 10.2C6.23334 10.513 6.48704 10.7667 6.8 10.7667Z" fill="#616161"/>
<path d="M11.3333 11.8999C11.6463 11.8999 11.9 12.1536 11.9 12.4666C11.9 12.7796 12.1537 13.0333 12.4667 13.0333C12.7796 13.0333 13.0333 12.7796 13.0333 12.4666C13.0333 11.5277 12.2722 10.7666 11.3333 10.7666C11.0204 10.7666 10.7667 11.0203 10.7667 11.3333C10.7667 11.6462 11.0204 11.8999 11.3333 11.8999Z" fill="#616161"/>
<path d="M26.6333 14.1666H28.9C29.5259 14.1666 30.0333 13.6592 30.0333 13.0333V10.7666C30.0333 10.1407 29.5259 9.6333 28.9 9.6333H26.6333C26.0074 9.6333 25.5 10.1407 25.5 10.7666V13.0333C25.5 13.6592 26.0074 14.1666 26.6333 14.1666ZM26.6333 10.7666H28.9V13.0333H26.6333V10.7666Z" fill="#616161"/>
<path d="M16.4333 6.23331H30.0333C30.3463 6.23331 30.6 5.9796 30.6 5.66664C30.6 5.35368 30.3463 5.09998 30.0333 5.09998H16.4333C16.1203 5.09998 15.8666 5.35368 15.8666 5.66664C15.8666 5.9796 16.1203 6.23331 16.4333 6.23331Z" fill="#616161"/>
<path d="M1.7 34C2.01296 34 2.26667 33.7463 2.26667 33.4334C2.26667 33.1204 2.01296 32.8667 1.7 32.8667H0.566667C0.253705 32.8667 0 33.1204 0 33.4334C0 33.7463 0.253705 34 0.566667 34H1.7Z" fill="#616161"/>
</g>
<defs>
<clipPath id="clip0_22003_359">
<rect width="34" height="34" fill="white"/>
</clipPath>
</defs>
</svg>
