<svg width="34" height="34" viewBox="0 0 34 34" fill="none" xmlns="http://www.w3.org/2000/svg">
<path d="M30.0335 15.8667H28.9001V11.3334C28.9001 11.0614 28.7075 10.8291 28.4468 10.7781L23.2335 9.7354V8.7154L24.5878 9.12907C24.6445 9.14607 24.7011 9.15174 24.7521 9.15174C24.9958 9.15174 25.2225 8.99307 25.2961 8.7494C25.3868 8.44907 25.2168 8.13174 24.9221 8.04107L22.9218 7.42907C22.8935 7.41207 22.8651 7.39507 22.8368 7.3894L20.0035 6.5394L9.80348 3.42274C9.50315 3.33207 9.18581 3.50207 9.09515 3.79674C9.00448 4.09707 9.17448 4.4144 9.46915 4.50507L10.7668 4.9074V9.7354L5.55348 10.7781C5.29281 10.8291 5.10015 11.0614 5.10015 11.3334V15.8667H3.96681C3.65515 15.8667 3.40015 16.1217 3.40015 16.4334V30.0334C3.40015 30.3451 3.65515 30.6001 3.96681 30.6001H14.7335H19.2668H30.0335C30.3451 30.6001 30.6001 30.3451 30.6001 30.0334V16.4334C30.6001 16.1217 30.3451 15.8667 30.0335 15.8667ZM27.7668 11.7981V15.8667H23.2335V10.8914L27.7668 11.7981ZM22.1001 8.36974V10.2001V15.8667H11.9001V10.2001V5.29274L19.6691 7.62174L22.1001 8.36974ZM6.23348 11.7981L10.7668 10.8914V15.8667H6.23348V11.7981ZM15.3001 29.4667V23.8001H18.7001V29.4667H15.3001ZM29.4668 29.4667H19.8335V23.8001H20.9668C21.2785 23.8001 21.5335 23.5451 21.5335 23.2334C21.5335 22.9217 21.2785 22.6667 20.9668 22.6667H19.2668H14.7335H13.0335C12.7218 22.6667 12.4668 22.9217 12.4668 23.2334C12.4668 23.5451 12.7218 23.8001 13.0335 23.8001H14.1668V29.4667H4.53348V17.0001H5.66681H11.3335H22.6668H28.3335H29.4668V29.4667Z" fill="#616161"/>
<path d="M26.6334 19.2666H23.2334C22.9217 19.2666 22.6667 19.5216 22.6667 19.8333V23.2333C22.6667 23.5449 22.9217 23.7999 23.2334 23.7999H26.6334C26.9451 23.7999 27.2001 23.5449 27.2001 23.2333V19.8333C27.2001 19.5216 26.9451 19.2666 26.6334 19.2666ZM26.0667 22.6666H23.8001V20.3999H26.0667V22.6666Z" fill="#616161"/>
<path d="M10.7667 19.2666H7.36672C7.05505 19.2666 6.80005 19.5216 6.80005 19.8333V23.2333C6.80005 23.5449 7.05505 23.7999 7.36672 23.7999H10.7667C11.0784 23.7999 11.3334 23.5449 11.3334 23.2333V19.8333C11.3334 19.5216 11.0784 19.2666 10.7667 19.2666ZM10.2 22.6666H7.93338V20.3999H10.2V22.6666Z" fill="#616161"/>
<path d="M14.1665 14.1668H19.8332C20.1449 14.1668 20.3999 13.9118 20.3999 13.6001V10.2001C20.3999 9.88842 20.1449 9.63342 19.8332 9.63342H14.1665C13.8549 9.63342 13.5999 9.88842 13.5999 10.2001V13.6001C13.5999 13.9118 13.8549 14.1668 14.1665 14.1668ZM19.2665 13.0334H17.5665V10.7668H19.2665V13.0334ZM14.7332 10.7668H16.4332V13.0334H14.7332V10.7668Z" fill="#616161"/>
</svg>
